# xmcd
#
# Track frame offsets:
#	150
#	13857
#	31440
#	46362
#	60370
#	75827
#	91627
#	107692
#	123405
#	138982
#	152825
#	167270
#	178067
#	197795
#
# Disc length: 2743 seconds
#
# Revision: 1
# Processed by: cddbd v1.5.2PL0 Copyright (c) Steve Scherf et al.
# Submitted via: audiograbber 1.83.01
#
DISCID=a40ab50e
DTITLE=Claude Blouin - Ballroom Dancing
DYEAR=1900
DGENRE=
TTITLE0=My Prayer
TTITLE1=Una Voz En La Noche
TTITLE2=Makin' Whoopee E Cocktails For Two
TTITLE3=Ballin' The Jack
TTITLE4=Aurevoir My Love
TTITLE5=St-Louis Blues
TTITLE6=Canadian Sunset
TTITLE7=Till I Walltz Again With You E C'est Si Bon
TTITLE8=My Melancholy Baby E Any Time
TTITLE9=Red Roses For A Blue Lady
TTITLE10=Only You
TTITLE11=Let's Tango Again
TTITLE12=La Golondrina, Vienna Life, Merry Widow
TTITLE13=Lulu's Back In Town
EXTD=
EXTT0=
EXTT1=
EXTT2=
EXTT3=
EXTT4=
EXTT5=
EXTT6=
EXTT7=
EXTT8=
EXTT9=
EXTT10=
EXTT11=
EXTT12=
EXTT13=
PLAYORDER=
